<?xml version="1.0" encoding="UTF-8"?>
<svg xmlns="http://www.w3.org/2000/svg" xmlns:xlink="http://www.w3.org/1999/xlink" viewBox="0 0 400 200">
  <defs>
    <style>
      .cls-1 {
        fill: url(#Sky);
      }

      .cls-1, .cls-2, .cls-3, .cls-4 {
        stroke-width: 0px;
      }

      .cls-2 {
        fill: url(#New_Gradient_Swatch_1-3);
      }

      .cls-3 {
        fill: url(#New_Gradient_Swatch_1);
      }

      .cls-4 {
        fill: url(#New_Gradient_Swatch_1-2);
      }
    </style>
    <linearGradient id="Sky" x1="400" y1="100" x2="0" y2="100" gradientUnits="userSpaceOnUse">
      <stop offset="0" stop-color="#cce0f4"/>
      <stop offset=".06" stop-color="#c2dcf2"/>
      <stop offset=".17" stop-color="#a9d2ee"/>
      <stop offset=".31" stop-color="#7fc2e7"/>
      <stop offset=".46" stop-color="#46abdd"/>
      <stop offset=".57" stop-color="#1e9cd7"/>
      <stop offset=".87" stop-color="#0075be"/>
      <stop offset=".99" stop-color="#005b97"/>
    </linearGradient>
    <linearGradient id="New_Gradient_Swatch_1" data-name="New Gradient Swatch 1" x1="25.57" y1="97.5" x2="152.4" y2="97.5" gradientUnits="userSpaceOnUse">
      <stop offset="0" stop-color="#fff"/>
      <stop offset=".08" stop-color="#fff5ff"/>
      <stop offset=".22" stop-color="#ffdcff"/>
      <stop offset=".4" stop-color="#ffb2ff"/>
      <stop offset=".62" stop-color="#ff78ff"/>
      <stop offset=".85" stop-color="#ff30ff"/>
      <stop offset=".99" stop-color="#f0f"/>
    </linearGradient>
    <linearGradient id="New_Gradient_Swatch_1-2" data-name="New Gradient Swatch 1" x1="153.81" y1="97.58" x2="261.18" y2="97.58" xlink:href="#New_Gradient_Swatch_1"/>
    <linearGradient id="New_Gradient_Swatch_1-3" data-name="New Gradient Swatch 1" x1="266.67" y1="97.58" x2="371.83" y2="97.58" xlink:href="#New_Gradient_Swatch_1"/>
  </defs>
  <g id="Background">
    <rect class="cls-1" width="400" height="200"/>
  </g>
  <g id="C">
    <path class="cls-3" d="m86.63,159.41c-36.73,0-61.06-24.73-61.06-62.17s24.17-61.66,61.06-61.66v123.83Zm4.71-123.83c35.63,0,60.12,23.21,61.06,59.29h-61.06v-59.29Zm61.06,64.37c-1.1,35.57-25.11,59.46-61.06,59.46v-59.46h61.06Z"/>
  </g>
  <g id="T">
    <path class="cls-4" d="m261.18,74.88h-107.37v-36.59h107.37v36.59Zm-27.78,5.08v76.91h-51.8v-76.91h51.8Z"/>
  </g>
  <g id="K">
    <path class="cls-2" d="m318.47,156.87h-51.8V38.29h51.8v118.58Zm51.49-97.92c0,27.78-4.55,33.2-27.47,33.2h-19.31v-27.61c0-20.5,5.34-26.26,23.86-26.26h22.92v20.67Zm-27.47,38.29c24.17,0,29.35,6.78,29.35,38.62v21.01h-48.66v-59.63h19.31Z"/>
  </g>
</svg>